# xmcd
#
# Track frame offsets:
#	150
#	16762
#	35174
#	50136
#	67348
#	83435
#	96147
#	114634
#	131696
#	146283
#	160420
#	176507
#	191694
#	207856
#	224993
#	244080
#	261367
#	277079
#	290991
#
# Disc length: 4001 seconds
#
# Revision: 3
# Processed by: cddbd v1.5.2PL0 Copyright (c) Steve Scherf et al.
# Submitted via: audiograbber 1.83.01
#
DISCID=360f9f13
DTITLE=Various Artist - Promo Only Country Radio 2007 - 6
DYEAR=2007
DGENRE=Country
TTITLE0=Trace Adkins - I Wanna Feel Something
TTITLE1=Bon Jovi - (You Want To) Make A Memory
TTITLE2=Bomshel   - Bomshel Stomp
TTITLE3=Jason Michael Carroll - Livin' Our Song
TTITLE4=Clay Walker - Fall
TTITLE5=Ty England - The Perfect Girl
TTITLE6=Heartland - Let's Get Dirty
TTITLE7=Carmen Rasmusen - Nothin' Like The Summer
TTITLE8=Donovan Chapman - All I Need
TTITLE9=Lee Brice - She Ain't Right
TTITLE10=Shawn King and Wille Nelson - I Give
TTITLE11=Van Zant - That Scares Me
TTITLE12=Megan Mullins - Cryin' Days
TTITLE13=Jamie Slocum - Say Hello To Heaven
TTITLE14=Kristin Cornell - Little Red Balloon
TTITLE15=Ty Herndon - Mighty Mighty Love
TTITLE16=Lisa Dames - I'd Leave Me  
TTITLE17=Tim Murphy - Burn Me Down
TTITLE18=Gina D - Sounds Are All Around Us
EXTD=
EXTT0=
EXTT1=
EXTT2=
EXTT3=
EXTT4=
EXTT5=
EXTT6=
EXTT7=
EXTT8=
EXTT9=
EXTT10=
EXTT11=
EXTT12=
EXTT13=
EXTT14=
EXTT15=
EXTT16=
EXTT17=
EXTT18=
PLAYORDER=
